<svg width="180" height="60" viewBox="0 0 180 60" fill="none" xmlns="http://www.w3.org/2000/svg">
<path d="M89.4583 34.839H86.7467V27.7057H89.499C92.0476 27.7057 93.5263 29.1731 93.5263 31.231V31.2516C93.5263 33.3107 92.0276 34.839 89.4583 34.839ZM91.4973 31.2617C91.4973 30.1208 90.7119 29.4583 89.5297 29.4583H88.7243V33.0858H89.5297C90.7125 33.0858 91.4973 32.4338 91.4973 31.2823V31.2617ZM80.5995 34.9712C78.5711 34.9712 77.2962 33.942 77.2962 31.7105V27.7051H79.3051V31.6697C79.3051 32.699 79.8248 33.1879 80.6202 33.1879C81.415 33.1879 81.9352 32.7196 81.9352 31.7205V27.7051H83.9436V31.6597C83.9436 33.9627 82.6285 34.9712 80.5995 34.9712ZM70.8745 34.9813C68.6719 34.9813 67.0415 33.3408 67.0415 31.2924V31.2717C67.0415 29.2239 68.6926 27.5628 70.8952 27.5628C73.0972 27.5628 74.7281 29.2032 74.7281 31.2516V31.2717C74.7281 33.3208 73.0765 34.9813 70.8745 34.9813ZM72.7098 31.2717C72.7098 30.2431 71.9658 29.3467 70.8745 29.3467C69.7939 29.3467 69.0699 30.2224 69.0699 31.2516V31.2717C69.0699 32.3016 69.814 33.1985 70.8946 33.1985C71.9858 33.1985 72.7098 32.3216 72.7098 31.2924V31.2717ZM59.7831 27.7051H61.7612V33.1064H65.2169V34.839H59.7831V27.7051ZM54.2069 33.1779C54.951 33.1779 55.3897 32.8312 55.8178 32.3116L57.3059 33.3716C56.6333 34.2986 55.7263 34.9813 54.1461 34.9813C52.1071 34.9813 50.4655 33.4223 50.4655 31.2924V31.2717C50.4655 29.1931 52.0657 27.5628 54.227 27.5628C55.6855 27.5628 56.6233 28.1739 57.2557 29.0508L55.767 30.2023C55.3596 29.6921 54.8901 29.3662 54.2069 29.3662C53.2078 29.3662 52.5045 30.2124 52.5045 31.2516V31.2717C52.5045 32.3423 53.2078 33.1779 54.2069 33.1779ZM38.9105 39.4354C34.386 39.4354 30.7184 35.769 30.7184 31.2469V31.2363H35.2653V31.2469C35.2656 32.2134 35.6498 33.1402 36.3334 33.8235C37.017 34.5067 37.944 34.8905 38.9105 34.8903C39.3891 34.8905 39.8631 34.7964 40.3053 34.6134C40.7475 34.4303 41.1494 34.162 41.4879 33.8237C41.8265 33.4854 42.0951 33.0837 42.2784 32.6416C42.4617 32.1994 42.5561 31.7255 42.5563 31.2469C42.5562 30.7683 42.4618 30.2943 42.2785 29.8521C42.0953 29.4099 41.8267 29.0082 41.4882 28.6698C41.1496 28.3314 40.7477 28.063 40.3054 27.8799C39.8632 27.6969 39.3891 27.6028 38.9105 27.6029C38.8184 27.6029 38.7286 27.61 38.6383 27.6165V23.0649C38.7286 23.0619 38.819 23.0578 38.9105 23.0578C43.4349 23.0578 47.1026 26.7242 47.1026 31.2469C47.1026 35.769 43.4349 39.4354 38.9105 39.4354ZM30.7048 15.0039H35.0037V23.8396L30.7048 28.1798V15.0039ZM21.9677 39.4354C20.6639 39.4354 19.4339 39.1272 18.3397 38.5863L22.0398 34.8874C22.9933 34.869 23.9016 34.4774 24.5697 33.7968C25.2378 33.1161 25.6123 32.2006 25.6129 31.2469C25.6128 30.7683 25.5185 30.2944 25.3353 29.8522C25.152 29.4101 24.8835 29.0084 24.545 28.67C24.2065 28.3316 23.8047 28.0632 23.3625 27.8801C22.9203 27.697 22.4463 27.6028 21.9677 27.6029C21.4891 27.6028 21.015 27.6969 20.5728 27.8799C20.1305 28.063 19.7286 28.3314 19.39 28.6698C19.0515 29.0082 18.7829 29.4099 18.5997 29.8521C18.4164 30.2943 18.322 30.7683 18.3219 31.2469C18.3219 31.2705 18.3255 31.2942 18.3261 31.3178H13.7774L13.7756 31.2469C13.7756 26.7237 17.4433 23.0578 21.9677 23.0578C26.4922 23.0578 30.1598 26.7242 30.1598 31.2469C30.1598 35.769 26.4922 39.4354 21.9677 39.4354ZM30.0151 40.7068V45.0039H12L16.342 40.7068H30.0151Z" fill="#F4F9FF"/>
</svg>
