<svg  xmlns:xlink="http://www.w3.org/1999/xlink" version="1.1" width="24" height="24" viewBox="0 0 1000 1000" xml:space="preserve">
<rect x="0" y="0" width="24" height="24"/>
<g transform="matrix(26.1504 0 0 26.1504 1095.3299 475.6099)" id="686593">
<path style="stroke: none; stroke-width: 1; stroke-dasharray: none; stroke-linecap: butt; stroke-dashoffset: 0; stroke-linejoin: miter; stroke-miterlimit: 4; is-custom-font: none; font-file-url: none; fill: rgb(244,249,255); fill-rule: nonzero; opacity: 1;" vector-effect="non-scaling-stroke" transform=" translate(-52.7632, -30.0039)" d="M 89.4583 34.839 H 86.7467 V 27.7057 H 89.499 C 92.0476 27.7057 93.5263 29.1731 93.5263 31.231 V 31.2516 C 93.5263 33.3107 92.0276 34.839 89.4583 34.839 Z M 91.4973 31.2617 C 91.4973 30.1208 90.7119 29.4583 89.5297 29.4583 H 88.7243 V 33.0858 H 89.5297 C 90.7125 33.0858 91.4973 32.4338 91.4973 31.2823 V 31.2617 Z M 80.5995 34.9712 C 78.5711 34.9712 77.2962 33.942 77.2962 31.7105 V 27.7051 H 79.3051 V 31.6697 C 79.3051 32.699 79.8248 33.1879 80.6202 33.1879 C 81.415 33.1879 81.9352 32.7196 81.9352 31.7205 V 27.7051 H 83.9436 V 31.6597 C 83.9436 33.9627 82.6285 34.9712 80.5995 34.9712 Z M 70.8745 34.9813 C 68.6719 34.9813 67.0415 33.3408 67.0415 31.2924 V 31.2717 C 67.0415 29.2239 68.6926 27.5628 70.8952 27.5628 C 73.0972 27.5628 74.7281 29.2032 74.7281 31.2516 V 31.2717 C 74.7281 33.3208 73.0765 34.9813 70.8745 34.9813 Z M 72.7098 31.2717 C 72.7098 30.2431 71.9658 29.3467 70.8745 29.3467 C 69.7939 29.3467 69.0699 30.2224 69.0699 31.2516 V 31.2717 C 69.0699 32.3016 69.814 33.1985 70.8946 33.1985 C 71.9858 33.1985 72.7098 32.3216 72.7098 31.2924 V 31.2717 Z M 59.7831 27.7051 H 61.7612 V 33.1064 H 65.2169 V 34.839 H 59.7831 V 27.7051 Z M 54.2069 33.1779 C 54.951 33.1779 55.3897 32.8312 55.8178 32.3116 L 57.3059 33.3716 C 56.6333 34.2986 55.7263 34.9813 54.1461 34.9813 C 52.1071 34.9813 50.4655 33.4223 50.4655 31.2924 V 31.2717 C 50.4655 29.1931 52.0657 27.5628 54.227 27.5628 C 55.6855 27.5628 56.6233 28.1739 57.2557 29.0508 L 55.767 30.2023 C 55.3596 29.6921 54.8901 29.3662 54.2069 29.3662 C 53.2078 29.3662 52.5045 30.2124 52.5045 31.2516 V 31.2717 C 52.5045 32.3423 53.2078 33.1779 54.2069 33.1779 Z M 38.9105 39.4354 C 34.386 39.4354 30.7184 35.769 30.7184 31.2469 V 31.2363 H 35.2653 V 31.2469 C 35.2656 32.2134 35.6498 33.1402 36.3334 33.8235 C 37.017 34.5067 37.944 34.8905 38.9105 34.8903 C 39.3891 34.8905 39.8631 34.7964 40.3053 34.6134 C 40.7475 34.4303 41.1494 34.162 41.4879 33.8237 C 41.8265 33.4854 42.0951 33.0837 42.2784 32.6416 C 42.4617 32.1994 42.5561 31.7255 42.5563 31.2469 C 42.5562 30.7683 42.4618 30.2943 42.2785 29.8521 C 42.0953 29.4099 41.8267 29.0082 41.4882 28.6698 C 41.1496 28.3314 40.7477 28.063 40.3054 27.8799 C 39.8632 27.6969 39.3891 27.6028 38.9105 27.6029 C 38.8184 27.6029 38.7286 27.61 38.6383 27.6165 V 23.0649 C 38.7286 23.0619 38.819 23.0578 38.9105 23.0578 C 43.4349 23.0578 47.1026 26.7242 47.1026 31.2469 C 47.1026 35.769 43.4349 39.4354 38.9105 39.4354 Z M 30.7048 15.0039 H 35.0037 V 23.8396 L 30.7048 28.1798 V 15.0039 Z M 21.9677 39.4354 C 20.6639 39.4354 19.4339 39.1272 18.3397 38.5863 L 22.0398 34.8874 C 22.9933 34.869 23.9016 34.4774 24.5697 33.7968 C 25.2378 33.1161 25.6123 32.2006 25.6129 31.2469 C 25.6128 30.7683 25.5185 30.2944 25.3353 29.8522 C 25.152 29.4101 24.8835 29.0084 24.545 28.67 C 24.2065 28.3316 23.8047 28.0632 23.3625 27.8801 C 22.9203 27.697 22.4463 27.6028 21.9677 27.6029 C 21.4891 27.6028 21.015 27.6969 20.5728 27.8799 C 20.1305 28.063 19.7286 28.3314 19.39 28.6698 C 19.0515 29.0082 18.7829 29.4099 18.5997 29.8521 C 18.4164 30.2943 18.322 30.7683 18.3219 31.2469 C 18.3219 31.2705 18.3255 31.2942 18.3261 31.3178 H 13.7774 L 13.7756 31.2469 C 13.7756 26.7237 17.4433 23.0578 21.9677 23.0578 C 26.4922 23.0578 30.1598 26.7242 30.1598 31.2469 C 30.1598 35.769 26.4922 39.4354 21.9677 39.4354 Z M 30.0151 40.7068 V 45.0039 H 12 L 16.342 40.7068 H 30.0151 Z" stroke-linecap="round"/>
</g>
</svg>