<svg width="24" height="24" viewBox="0 0 24 24" fill="none" xmlns="http://www.w3.org/2000/svg">
<path d="M5 4C5.55228 4 6 4.44772 6 5V18H19C19.5523 18 20 18.4477 20 19C20 19.5523 19.5523 20 19 20H5C4.44772 20 4 19.5523 4 19V5C4 4.44772 4.44772 4 5 4Z" fill="currentColor"/>
<path d="M19.832 8.55468C20.1384 8.09516 20.0142 7.47429 19.5547 7.16793C19.0952 6.86158 18.4743 6.98576 18.1679 7.44528L15.7543 11.5657L12.6 9.19998C12.1407 8.85553 11.4864 8.96762 11.1679 9.44528L8.16793 14.4453C7.86158 14.9048 7.98576 15.5257 8.44528 15.832C8.90481 16.1384 9.52568 16.0142 9.83203 15.5547L12.2457 11.4342L15.4 13.8C15.8593 14.1444 16.5136 14.0324 16.832 13.5547L19.832 8.55468Z" fill="currentColor"/>
</svg>
