<svg width="24" height="24" viewBox="0 0 24 24" fill="none" xmlns="http://www.w3.org/2000/svg">
<path d="M12.2072 6.70711C12.5977 6.31658 12.5977 5.68342 12.2072 5.29289C11.8167 4.90237 11.1835 4.90237 10.793 5.29289L4.43942 11.6464C4.24415 11.8417 4.24415 12.1583 4.43942 12.3536L10.793 18.7071C11.1835 19.0976 11.8167 19.0976 12.2072 18.7071C12.5977 18.3166 12.5977 17.6834 12.2072 17.2929L6.91429 12L12.2072 6.70711Z" fill="#4E6CA8"/>
<path d="M18.2072 6.70711C18.5977 6.31658 18.5977 5.68342 18.2072 5.29289C17.8167 4.90237 17.1835 4.90237 16.793 5.29289L10.4394 11.6464C10.2442 11.8417 10.2442 12.1583 10.4394 12.3536L16.793 18.7071C17.1835 19.0976 17.8167 19.0976 18.2072 18.7071C18.5977 18.3166 18.5977 17.6834 18.2072 17.2929L12.9143 12L18.2072 6.70711Z" fill="#4E6CA8"/>
</svg>
