<svg width="24" height="24" viewBox="0 0 24 24" fill="none" xmlns="http://www.w3.org/2000/svg">
<path d="M10.0755 10.5811C10.3547 10.5811 10.5811 10.3547 10.5811 10.0755L10.5811 4.01129C10.5811 3.45277 10.1283 3 9.56982 3C9.01129 3 8.55852 3.45277 8.55852 4.01129V7.12835L5.30749 3.87732C4.91256 3.48239 4.27224 3.48239 3.87731 3.87732C3.48238 4.27226 3.48238 4.91257 3.87731 5.30751L7.12833 8.55852L4.01129 8.55852C3.45277 8.55852 3 9.01129 3 9.56981C3 10.1283 3.45277 10.5811 4.01129 10.5811L10.0755 10.5811Z" fill="currentColor"/>
<path d="M13.9245 13.4189C13.6453 13.4189 13.4189 13.6453 13.4189 13.9245V19.9887C13.4189 20.5472 13.8717 21 14.4302 21C14.9887 21 15.4415 20.5472 15.4415 19.9887V16.8717L18.6925 20.1227C19.0874 20.5176 19.7278 20.5176 20.1227 20.1227C20.5176 19.7277 20.5176 19.0874 20.1227 18.6925L16.8717 15.4415L19.9887 15.4415C20.5472 15.4415 21 14.9887 21 14.4302C21 13.8717 20.5472 13.4189 19.9887 13.4189L13.9245 13.4189Z" fill="currentColor"/>
<path d="M10.0755 13.4189C10.3547 13.4189 10.5811 13.6453 10.5811 13.9245L10.5811 19.9887C10.5811 20.5472 10.1283 21 9.56982 21C9.01129 21 8.55852 20.5472 8.55852 19.9887L8.55852 16.8717L5.30751 20.1227C4.91257 20.5176 4.27226 20.5176 3.87732 20.1227C3.48239 19.7278 3.48239 19.0874 3.87732 18.6925L7.12835 15.4415H4.01129C3.45277 15.4415 3 14.9887 3 14.4302C3 13.8717 3.45277 13.4189 4.01129 13.4189L10.0755 13.4189Z" fill="currentColor"/>
<path d="M13.4189 10.0755C13.4189 10.3547 13.6453 10.5811 13.9245 10.5811L19.9887 10.5811C20.5472 10.5811 21 10.1283 21 9.56981C21 9.01129 20.5472 8.55852 19.9887 8.55852H16.8717L20.1227 5.30749C20.5176 4.91256 20.5176 4.27225 20.1227 3.87731C19.7277 3.48238 19.0874 3.48238 18.6925 3.87731L15.4415 7.12833L15.4415 4.01129C15.4415 3.45277 14.9887 3 14.4302 3C13.8717 3 13.4189 3.45277 13.4189 4.01129L13.4189 10.0755Z" fill="currentColor"/>
</svg>
