<svg width="24" height="24" viewBox="0 0 24 24" fill="none" xmlns="http://www.w3.org/2000/svg">
<path fill-rule="evenodd" clip-rule="evenodd" d="M14.25 7.02632C14.25 9.24999 12.4368 11.0526 10.2 11.0526C7.96325 11.0526 6.15 9.24999 6.15 7.02632C6.15 4.80264 7.96325 3 10.2 3C12.4368 3 14.25 4.80264 14.25 7.02632ZM12.45 7.02632C12.45 8.26169 11.4426 9.26316 10.2 9.26316C8.95736 9.26316 7.95 8.26169 7.95 7.02632C7.95 5.79094 8.95736 4.78947 10.2 4.78947C11.4426 4.78947 12.45 5.79094 12.45 7.02632Z" fill="currentColor"/>
<path fill-rule="evenodd" clip-rule="evenodd" d="M3 18.1417C3 14.7207 5.78961 11.9474 9.23077 11.9474H11.1692C14.6104 11.9474 17.4 14.7207 17.4 18.1417C17.4 19.168 16.5631 20 15.5308 20H4.86923C3.83688 20 3 19.168 3 18.1417ZM4.8 18.1417C4.8 15.709 6.78372 13.7368 9.23077 13.7368H11.1692C13.6163 13.7368 15.6 15.709 15.6 18.1417C15.6 18.1797 15.569 18.2105 15.5308 18.2105H4.86923C4.831 18.2105 4.8 18.1797 4.8 18.1417Z" fill="currentColor"/>
<path d="M18.2278 19.1923C18.1348 19.5509 18.3696 20 18.7422 20H19.1308C20.1631 20 21 19.168 21 18.1417C21 14.7207 18.2104 11.9474 14.7692 11.9474C14.6412 11.9474 14.5946 12.1241 14.7033 12.1914C15.5544 12.7181 16.2934 13.4071 16.8764 14.2149C16.9159 14.2697 16.9668 14.3154 17.0252 14.3497C18.3271 15.1169 19.2 16.528 19.2 18.1417C19.2 18.1797 19.169 18.2105 19.1308 18.2105H18.7045C18.4786 18.2105 18.3 18.399 18.3 18.6235C18.3 18.8199 18.2749 19.0105 18.2278 19.1923Z" fill="currentColor"/>
<path d="M14.6271 9.23012C14.6766 9.132 14.7581 9.0538 14.8556 9.00222C15.5662 8.62623 16.05 7.88244 16.05 7.02632C16.05 6.17019 15.5662 5.4264 14.8556 5.05041C14.7581 4.99883 14.6766 4.92063 14.6271 4.82251C14.3756 4.32422 14.0415 3.87427 13.6427 3.4904C13.4607 3.31523 13.5467 3 13.8 3C16.0367 3 17.85 4.80264 17.85 7.02632C17.85 9.24999 16.0367 11.0526 13.8 11.0526C13.5467 11.0526 13.4607 10.7374 13.6427 10.5622C14.0415 10.1784 14.3756 9.72841 14.6271 9.23012Z" fill="currentColor"/>
</svg>
